<?xml version="1.0" encoding="utf-8"?>
<svg xmlns="http://www.w3.org/2000/svg" width="255" height="154" viewBox="0 0 255 154">
    <g fill="#000" fill-rule="evenodd">
        <path d="M205.4 97.134h-23.534V56.37H205.4v7.1h-14.87v8.273h13.837v7.098H190.53v11.14h14.87zM166.023 56.471l-14.479 18.7 14.367 21.965h9.839l-13.98-21.948 13.868-18.717zM151.54 56.37l-8.838.064-.09 40.614 8.929.023z"/>
        <path d="M151.54 56.37l-8.838.064-.09 40.614 8.929.023zM68.935 85.444c0 3.579-1.289 6.398-3.864 8.459-2.576 2.061-6.159 3.091-10.75 3.091-4.23 0-7.972-.795-11.225-2.386v-7.809c2.675 1.194 4.94 2.034 6.792 2.523 1.852.486 3.547.731 5.083.731 1.844 0 3.258-.353 4.243-1.056.985-.706 1.48-1.754 1.48-3.146 0-.777-.218-1.469-.653-2.074-.433-.606-1.07-1.188-1.91-1.749-.842-.561-2.553-1.454-5.138-2.684-2.422-1.14-4.24-2.233-5.45-3.281a12.313 12.313 0 0 1-2.9-3.659c-.725-1.393-1.086-3.019-1.086-4.881 0-3.507 1.188-6.264 3.566-8.27 2.375-2.006 5.661-3.009 9.854-3.009 2.061 0 4.027.244 5.897.731 1.872.489 3.828 1.175 5.871 2.061l-2.712 6.535c-2.115-.867-3.864-1.474-5.245-1.817a16.933 16.933 0 0 0-4.082-.516c-1.59 0-2.81.371-3.66 1.112-.848.741-1.274 1.707-1.274 2.901 0 .742.172 1.387.516 1.939.343.551.89 1.085 1.64 1.6.75.515 2.526 1.441 5.327 2.779 3.705 1.771 6.245 3.547 7.62 5.328 1.373 1.779 2.06 3.962 2.06 6.547M90.482 75.5h2.851c2.665 0 4.659-.526 5.982-1.58 1.322-1.052 1.983-2.584 1.983-4.597 0-2.031-.554-3.531-1.663-4.501-1.109-.968-2.846-1.453-5.213-1.453h-3.94v12.13zm19.566-6.484c0 4.397-1.375 7.76-4.123 10.089-2.749 2.33-6.658 3.495-11.726 3.495h-3.717v14.247l-8.665.124V56.27H94.87c4.957 0 8.724 1.066 11.306 3.2 2.58 2.134 3.872 5.315 3.872 9.546zM123.543 66.272l7.126-5.06v-7.335l-8.665 6.383v32.797l8.665 6.384V70.768z"/>
        <path d="M124.539 146.382c1.65.225 3.323.225 4.973-.001l98.319-13.44c8.477-1.16 15.123-8.192 15.805-16.722l3.015-37.816c.077-.966.077-1.949 0-2.915l-3.015-37.816c-.682-8.53-7.328-15.562-15.805-16.721L129.509 7.509a18.463 18.463 0 0 0-4.97 0L26.217 20.951c-8.478 1.159-15.124 8.19-15.806 16.72L7.397 75.488a18.198 18.198 0 0 0 0 2.916l3.014 37.817c.682 8.53 7.328 15.561 15.806 16.721l98.322 13.441zm2.484 7.507c-1.161 0-2.323-.079-3.475-.236h-.003l-98.323-13.441c-11.87-1.623-21.173-11.468-22.126-23.407L.08 78.986a26.02 26.02 0 0 1 0-4.084L3.096 37.09c.953-11.944 10.258-21.787 22.126-23.408L123.545.24c2.307-.32 4.65-.32 6.959 0l98.32 13.44c11.868 1.622 21.174 11.465 22.127 23.407l3.017 37.816c.107 1.355.107 2.73 0 4.085l-3.017 37.817c-.953 11.939-10.257 21.784-22.126 23.406l-98.321 13.442a25.856 25.856 0 0 1-3.481.237z"/>
    </g>
</svg>
