<?xml version="1.0" encoding="utf-8"?>
<!-- Generator: Adobe Illustrator 23.1.1, SVG Export Plug-In . SVG Version: 6.00 Build 0)  -->
<svg version="1.1" id="Calque_1" xmlns="http://www.w3.org/2000/svg" xmlns:xlink="http://www.w3.org/1999/xlink" x="0px" y="0px"
	 viewBox="0 0 255 154" style="enable-background:new 0 0 255 154;" xml:space="preserve">
<style type="text/css">
	.st0{fill-rule:evenodd;clip-rule:evenodd;fill:#FFFFFF;}
</style>
<g>
	<path class="st0" d="M205.4,97.1h-23.5V56.4h23.5v7.1h-14.9v8.3h13.8v7.1h-13.8V90h14.9V97.1z M166,56.5l-14.5,18.7l14.4,22h9.8
		l-14-21.9l13.9-18.7L166,56.5z M151.5,56.4l-8.8,0.1L142.6,97l8.9,0L151.5,56.4z"/>
	<path class="st0" d="M151.5,56.4l-8.8,0.1L142.6,97l8.9,0L151.5,56.4z M68.9,85.4c0,3.6-1.3,6.4-3.9,8.5C62.5,96,58.9,97,54.3,97
		c-4.2,0-8-0.8-11.2-2.4v-7.8c2.7,1.2,4.9,2,6.8,2.5c1.9,0.5,3.5,0.7,5.1,0.7c1.8,0,3.3-0.4,4.2-1.1c1-0.7,1.5-1.8,1.5-3.1
		c0-0.8-0.2-1.5-0.7-2.1c-0.4-0.6-1.1-1.2-1.9-1.7c-0.8-0.6-2.6-1.5-5.1-2.7c-2.4-1.1-4.2-2.2-5.5-3.3c-1.2-1-2.2-2.3-2.9-3.7
		c-0.7-1.4-1.1-3-1.1-4.9c0-3.5,1.2-6.3,3.6-8.3c2.4-2,5.7-3,9.9-3c2.1,0,4,0.2,5.9,0.7c1.9,0.5,3.8,1.2,5.9,2.1L66,65.6
		c-2.1-0.9-3.9-1.5-5.2-1.8c-1.3-0.3-2.7-0.5-4.1-0.5c-1.6,0-2.8,0.4-3.7,1.1c-0.8,0.7-1.3,1.7-1.3,2.9c0,0.7,0.2,1.4,0.5,1.9
		c0.3,0.6,0.9,1.1,1.6,1.6s2.5,1.4,5.3,2.8c3.7,1.8,6.2,3.5,7.6,5.3C68.2,80.7,68.9,82.9,68.9,85.4 M90.5,75.5h2.9
		c2.7,0,4.7-0.5,6-1.6c1.3-1.1,2-2.6,2-4.6c0-2-0.6-3.5-1.7-4.5c-1.1-1-2.8-1.5-5.2-1.5h-3.9V75.5L90.5,75.5z M110,69
		c0,4.4-1.4,7.8-4.1,10.1c-2.7,2.3-6.7,3.5-11.7,3.5h-3.7v14.2L81.8,97V56.3h13.1c5,0,8.7,1.1,11.3,3.2C108.8,61.6,110,64.8,110,69z
		 M123.5,66.3l7.1-5.1v-7.3l-8.7,6.4v32.8l8.7,6.4V70.8L123.5,66.3z"/>
	<path class="st0" d="M124.5,146.4c1.7,0.2,3.3,0.2,5,0l98.3-13.4c8.5-1.2,15.1-8.2,15.8-16.7l3-37.8c0.1-1,0.1-1.9,0-2.9l-3-37.8
		c-0.7-8.5-7.3-15.6-15.8-16.7L129.5,7.5c-1.6-0.2-3.3-0.2-5,0L26.2,21c-8.5,1.2-15.1,8.2-15.8,16.7l-3,37.8c-0.1,1-0.1,1.9,0,2.9
		l3,37.8c0.7,8.5,7.3,15.6,15.8,16.7L124.5,146.4L124.5,146.4z M127,153.9c-1.2,0-2.3-0.1-3.5-0.2h0l-98.3-13.4
		C13.4,138.6,4,128.7,3.1,116.8L0.1,79c-0.1-1.4-0.1-2.7,0-4.1l3-37.8c1-11.9,10.3-21.8,22.1-23.4l98.3-13.4c2.3-0.3,4.6-0.3,7,0
		l98.3,13.4c11.9,1.6,21.2,11.5,22.1,23.4l3,37.8c0.1,1.4,0.1,2.7,0,4.1l-3,37.8c-1,11.9-10.3,21.8-22.1,23.4l-98.3,13.4
		C129.4,153.8,128.2,153.9,127,153.9L127,153.9z"/>
</g>
</svg>
